<svg width="116" height="116" viewBox="0 0 116 116" fill="none" xmlns="http://www.w3.org/2000/svg">
<rect width="116" height="116" fill="#E5E5E5"/>
<circle cx="58" cy="58" r="58" fill="white"/>
<path d="M22.536 65H24.444L26.064 59.762C26.37 58.808 26.658 57.89 26.928 56.9H27.018C27.324 57.89 27.576 58.79 27.864 59.726L29.556 65H31.554L34.632 55.19H33.066L31.338 60.878C31.068 61.796 30.834 62.696 30.582 63.596H30.492C30.222 62.696 29.97 61.814 29.664 60.878L27.828 55.19H26.226L24.426 60.914C24.156 61.832 23.886 62.696 23.634 63.596H23.526C23.292 62.696 23.022 61.814 22.788 60.878L21.006 55.19H19.332L22.536 65ZM40.698 65H42.336V57.908C43.488 56.9 44.406 56.414 45.522 56.414C46.998 56.414 47.826 57.134 47.826 59.024V65H49.482V58.808C49.482 56.234 48.276 54.974 46.116 54.974C44.532 54.974 43.326 55.694 42.282 56.612L42.336 54.542V50.672H40.698V65ZM65.7 62.462C64.584 63.398 63.468 63.902 62.37 63.902C61.218 63.902 60.192 63.47 60.192 62.336C60.192 61.04 61.488 60.212 65.7 59.888V62.462ZM65.844 63.668L65.988 65H67.338V58.988C67.338 56.54 66.024 54.992 63.36 54.992C61.65 54.992 59.994 55.73 59.004 56.378L59.67 57.512C60.552 56.936 61.812 56.324 63.09 56.324C64.998 56.324 65.664 57.458 65.7 58.808C60.642 59.204 58.59 60.284 58.59 62.462C58.59 64.208 60.084 65.216 61.92 65.216C63.306 65.216 64.71 64.496 65.79 63.668H65.844ZM82.89 65.216C83.934 65.216 85.068 64.964 85.95 64.658L85.59 63.452C84.906 63.704 84.15 63.884 83.232 63.884C81.342 63.884 80.748 62.966 80.748 61.202V56.54H85.572V55.208H80.748V52.454H79.38L79.182 55.208L76.338 55.298V56.54H79.11V61.166C79.11 63.596 80.046 65.216 82.89 65.216ZM93.1377 61.3965C93.1494 60.6992 93.2285 60.1484 93.375 59.7441C93.5215 59.3398 93.8203 58.8916 94.2715 58.3994L95.4229 57.2129C95.915 56.6562 96.1611 56.0586 96.1611 55.4199C96.1611 54.8047 96 54.3242 95.6777 53.9785C95.3555 53.627 94.8867 53.4512 94.2715 53.4512C93.6738 53.4512 93.1934 53.6094 92.8301 53.9258C92.4668 54.2422 92.2852 54.667 92.2852 55.2002H90.6592C90.6709 54.251 91.0078 53.4863 91.6699 52.9062C92.3379 52.3203 93.2051 52.0273 94.2715 52.0273C95.3789 52.0273 96.2402 52.3262 96.8555 52.9238C97.4766 53.5156 97.7871 54.3301 97.7871 55.3672C97.7871 56.3926 97.3125 57.4033 96.3633 58.3994L95.4053 59.3486C94.9775 59.8232 94.7637 60.5059 94.7637 61.3965H93.1377ZM93.0674 64.1826C93.0674 63.9189 93.1465 63.6992 93.3047 63.5234C93.4688 63.3418 93.709 63.251 94.0254 63.251C94.3418 63.251 94.582 63.3418 94.7461 63.5234C94.9102 63.6992 94.9922 63.9189 94.9922 64.1826C94.9922 64.4463 94.9102 64.666 94.7461 64.8418C94.582 65.0117 94.3418 65.0967 94.0254 65.0967C93.709 65.0967 93.4688 65.0117 93.3047 64.8418C93.1465 64.666 93.0674 64.4463 93.0674 64.1826Z" fill="black"/>
</svg>
