<svg width="116" height="116" viewBox="0 0 116 116" fill="none" xmlns="http://www.w3.org/2000/svg">
<rect width="116" height="116" fill="#E5E5E5"/>
<circle cx="58" cy="58" r="58" fill="white"/>
<path d="M31.536 65H33.444L35.064 59.762C35.37 58.808 35.658 57.89 35.928 56.9H36.018C36.324 57.89 36.576 58.79 36.864 59.726L38.556 65H40.554L43.632 55.19H42.066L40.338 60.878C40.068 61.796 39.834 62.696 39.582 63.596H39.492C39.222 62.696 38.97 61.814 38.664 60.878L36.828 55.19H35.226L33.426 60.914C33.156 61.832 32.886 62.696 32.634 63.596H32.526C32.292 62.696 32.022 61.814 31.788 60.878L30.006 55.19H28.332L31.536 65ZM49.698 65H51.336V57.908C52.488 56.9 53.406 56.414 54.522 56.414C55.998 56.414 56.826 57.134 56.826 59.024V65H58.482V58.808C58.482 56.234 57.276 54.974 55.116 54.974C53.532 54.974 52.326 55.694 51.282 56.612L51.336 54.542V50.672H49.698V65ZM68.724 69.212C70.848 69.212 72 67.736 72.792 65.828L77.022 55.19H75.402L73.314 60.644C73.008 61.526 72.648 62.516 72.324 63.416H72.234C71.838 62.498 71.442 61.508 71.064 60.644L68.706 55.19H66.978L71.478 65.018L71.208 65.756C70.74 66.962 69.966 67.862 68.634 67.862C68.31 67.862 67.95 67.772 67.752 67.682L67.41 68.996C67.752 69.122 68.22 69.212 68.724 69.212ZM84.1377 61.3965C84.1494 60.6992 84.2285 60.1484 84.375 59.7441C84.5215 59.3398 84.8203 58.8916 85.2715 58.3994L86.4229 57.2129C86.915 56.6562 87.1611 56.0586 87.1611 55.4199C87.1611 54.8047 87 54.3242 86.6777 53.9785C86.3555 53.627 85.8867 53.4512 85.2715 53.4512C84.6738 53.4512 84.1934 53.6094 83.8301 53.9258C83.4668 54.2422 83.2852 54.667 83.2852 55.2002H81.6592C81.6709 54.251 82.0078 53.4863 82.6699 52.9062C83.3379 52.3203 84.2051 52.0273 85.2715 52.0273C86.3789 52.0273 87.2402 52.3262 87.8555 52.9238C88.4766 53.5156 88.7871 54.3301 88.7871 55.3672C88.7871 56.3926 88.3125 57.4033 87.3633 58.3994L86.4053 59.3486C85.9775 59.8232 85.7637 60.5059 85.7637 61.3965H84.1377ZM84.0674 64.1826C84.0674 63.9189 84.1465 63.6992 84.3047 63.5234C84.4688 63.3418 84.709 63.251 85.0254 63.251C85.3418 63.251 85.582 63.3418 85.7461 63.5234C85.9102 63.6992 85.9922 63.9189 85.9922 64.1826C85.9922 64.4463 85.9102 64.666 85.7461 64.8418C85.582 65.0117 85.3418 65.0967 85.0254 65.0967C84.709 65.0967 84.4688 65.0117 84.3047 64.8418C84.1465 64.666 84.0674 64.4463 84.0674 64.1826Z" fill="black"/>
</svg>
